# 3ds Max Wavefront OBJ Exporter v0.97b - (c)2007 guruware
# File Created: 11.10.2018 10:03:30

#
# object Car
#

v  -11.7735 0.0000 7.5000
v  -11.7735 0.0000 -7.5000
v  -9.3291 0.0000 -7.5000
v  -9.3291 0.0000 7.5000
v  3.1837 0.0000 -7.5000
v  3.1837 0.0000 7.5000
v  12.2436 0.0000 -7.5000
v  12.2436 0.0000 7.5000
v  22.0782 0.0000 -7.5000
v  22.0782 0.0000 7.5000
v  -11.7735 7.0000 7.5000
v  -9.2090 16.0000 7.5000
v  -9.2090 16.0000 -7.5000
v  -11.7735 7.0000 -7.5000
v  3.1837 16.0000 7.5000
v  3.1837 16.0000 -7.5000
v  12.2436 7.0000 7.5000
v  12.2436 7.0000 -7.5000
v  22.0782 7.0000 7.5000
v  22.0782 7.0000 -7.5000
v  -22.0782 0.0000 -7.5000
v  -22.0782 0.0000 7.5000
v  -22.0782 7.0000 7.5000
v  -22.0782 7.0000 -7.5000
# 24 vertices

vn 0.0000 -0.7071 0.7071
vn 0.0000 -0.7071 -0.7071
vn 0.5774 -0.5774 -0.5774
vn 0.5774 -0.5774 0.5774
vn -0.9617 0.2740 -0.0000
vn 0.0000 0.6476 0.7620
vn 0.0000 0.5542 0.8324
vn 0.0000 0.5542 -0.8324
vn 0.0000 0.6476 -0.7620
vn 0.7048 0.7094 -0.0000
vn 0.0000 0.3717 0.9284
vn 0.5774 0.5774 0.5774
vn 0.5774 0.5774 -0.5774
vn 0.0000 0.3717 -0.9284
vn 0.0000 0.3339 0.9426
vn 0.0000 0.3339 -0.9426
vn -0.5774 -0.5774 -0.5774
vn -0.5774 -0.5774 0.5774
vn -0.5774 0.5774 0.5774
vn -0.5774 0.5774 -0.5774
# 20 vertex normals

o Car
g Car
s 1
f 1//1 2//2 3//2 
f 3//2 4//1 1//1 
f 4//1 3//2 5//2 
f 5//2 6//1 4//1 
f 6//1 5//2 7//2 
f 7//2 8//1 6//1 
f 8//1 7//2 9//3 
f 9//3 10//4 8//1 
s 2
f 11//5 12//5 13//5 
f 13//5 14//5 11//5 
s 1
f 12//6 15//7 16//8 
f 16//8 13//9 12//6 
s 4
f 15//10 17//10 18//10 
f 18//10 16//10 15//10 
s 1
f 17//11 19//12 20//13 
f 20//13 18//14 17//11 
f 1//1 4//1 12//6 
f 12//6 11//15 1//1 
f 4//1 6//1 15//7 
f 15//7 12//6 4//1 
f 6//1 8//1 17//11 
f 17//11 15//7 6//1 
f 8//1 10//4 19//12 
f 19//12 17//11 8//1 
f 10//4 9//3 20//13 
f 20//13 19//12 10//4 
f 9//3 7//2 18//14 
f 18//14 20//13 9//3 
f 7//2 5//2 16//8 
f 16//8 18//14 7//2 
f 5//2 3//2 13//9 
f 13//9 16//8 5//2 
f 3//2 2//2 14//16 
f 14//16 13//9 3//2 
f 21//17 22//18 23//19 
f 23//19 24//20 21//17 
f 2//2 1//1 22//18 
f 22//18 21//17 2//2 
f 1//1 11//15 23//19 
f 23//19 22//18 1//1 
f 11//15 14//16 24//20 
f 24//20 23//19 11//15 
f 14//16 2//2 21//17 
f 21//17 24//20 14//16 
# 44 faces

