# 3ds Max Wavefront OBJ Exporter v0.97b - (c)2007 guruware
# File Created: 11.10.2018 10:04:48

#
# object Wheel
#

v  3.5173 -2.0307 3.3779
v  4.0615 0.0000 3.3779
v  3.5173 2.0307 3.3779
v  2.0307 3.5173 3.3779
v  -0.0000 4.0615 3.3779
v  -2.0307 3.5173 3.3779
v  -3.5173 2.0307 3.3779
v  -4.0615 0.0000 3.3779
v  -3.5173 -2.0307 3.3779
v  -2.0307 -3.5173 3.3779
v  0.0000 -4.0615 3.3779
v  2.0307 -3.5173 3.3779
v  -2.0307 -3.5173 1.2728
v  0.0000 -4.0615 1.2728
v  -3.5173 -2.0307 1.2728
v  -4.0615 0.0000 1.2728
v  -3.5173 2.0307 1.2728
v  -2.0307 3.5173 1.2728
v  -0.0000 4.0615 1.2728
v  2.0307 3.5173 1.2728
v  3.5173 2.0307 1.2728
v  4.0615 0.0000 1.2728
v  3.5173 -2.0307 1.2728
v  2.0307 -3.5173 1.2728
v  -0.6886 -1.1928 1.2728
v  0.0000 -1.3773 1.2728
v  -1.1928 -0.6886 1.2728
v  -1.3773 0.0000 1.2728
v  -1.1928 0.6886 1.2728
v  -0.6886 1.1928 1.2728
v  0.0000 1.3773 1.2728
v  0.6886 1.1928 1.2728
v  1.1928 0.6886 1.2728
v  1.3773 0.0000 1.2728
v  1.1928 -0.6886 1.2728
v  0.6886 -1.1928 1.2728
v  -0.4482 -0.7762 0.0000
v  0.0000 -0.8963 0.0000
v  -0.7762 -0.4482 0.0000
v  -0.8963 -0.0000 0.0000
v  -0.7762 0.4482 0.0000
v  -0.4482 0.7762 0.0000
v  0.0000 0.8963 0.0000
v  0.4482 0.7762 0.0000
v  0.7762 0.4482 0.0000
v  0.8963 -0.0000 0.0000
v  0.7762 -0.4482 0.0000
v  0.4482 -0.7762 0.0000
# 48 vertices

vn -0.0000 0.0000 1.0000
vn 0.0000 0.0000 1.0000
vn -0.0000 -0.0000 1.0000
vn 0.0000 -0.0000 1.0000
vn -0.0000 -1.0000 -0.0000
vn -0.5000 -0.8660 -0.0000
vn -0.0000 -1.0000 0.0000
vn -0.8660 -0.5000 0.0000
vn -0.8660 -0.5000 -0.0000
vn -1.0000 0.0000 0.0000
vn -0.8660 0.5000 -0.0000
vn -0.5000 0.8660 0.0000
vn -0.5000 0.8660 -0.0000
vn 0.0000 1.0000 -0.0000
vn 0.0000 1.0000 0.0000
vn 0.5000 0.8660 -0.0000
vn 0.8660 0.5000 -0.0000
vn 1.0000 0.0000 -0.0000
vn 0.8660 -0.5000 -0.0000
vn 0.5000 -0.8660 0.0000
vn 0.5000 -0.8660 -0.0000
vn 0.0000 -0.0000 -1.0000
vn -0.0000 -0.0000 -1.0000
vn 0.0000 0.0000 -1.0000
vn 0.0000 -0.9354 -0.3535
vn -0.4677 -0.8101 -0.3535
vn -0.0000 -0.9354 -0.3535
vn -0.8101 -0.4677 -0.3535
vn -0.9354 0.0000 -0.3535
vn -0.8101 0.4677 -0.3535
vn -0.4677 0.8101 -0.3535
vn 0.0000 0.9354 -0.3535
vn -0.0000 0.9354 -0.3535
vn 0.4677 0.8101 -0.3535
vn 0.8101 0.4677 -0.3535
vn 0.9354 0.0000 -0.3535
vn 0.9354 -0.0000 -0.3535
vn 0.8101 -0.4677 -0.3535
vn 0.4677 -0.8101 -0.3535
# 39 vertex normals

vt 0.2440 0.0000 -0.2680
vt 0.1116 0.0000 -0.7321
vt 0.0833 0.0000 -1.0000
vt 0.1667 0.0000 -1.0000
vt 0.3393 0.0000 -0.7321
vt 0.5550 0.0000 -0.2679
vt 0.7560 0.0000 0.2679
vt 0.8884 0.0000 0.7321
vt 0.9167 0.0000 1.0000
vt 0.8333 0.0000 1.0000
vt 0.7500 0.0000 1.0000
vt 0.4450 0.0000 0.2679
vt 0.8333 0.3333 1.0000
vt 0.7500 0.3333 1.0000
vt 0.9167 0.3333 1.0000
vt -0.0833 0.0000 1.0000
vt 0.0000 0.0000 1.0000
vt 0.0000 0.3333 1.0000
vt -0.0833 0.3333 1.0000
vt 0.0833 0.0000 1.0000
vt 0.0833 0.3333 1.0000
vt 0.1667 0.0000 1.0000
vt 0.1667 0.3333 1.0000
vt 0.2500 0.0000 1.0000
vt 0.2500 0.3333 1.0000
vt 0.3333 0.0000 1.0000
vt 0.3333 0.3333 1.0000
vt 0.4167 0.0000 1.0000
vt 0.4167 0.3333 1.0000
vt 0.5000 0.0000 1.0000
vt 0.5000 0.3333 1.0000
vt 0.5833 0.0000 1.0000
vt 0.5833 0.3333 1.0000
vt 0.6667 0.0000 1.0000
vt 0.6667 0.3333 1.0000
vt 0.8333 0.6667 1.0000
vt 0.7500 0.6667 1.0000
vt 0.9167 0.6667 1.0000
vt 0.0000 0.6667 1.0000
vt -0.0833 0.6667 1.0000
vt 0.0833 0.6667 1.0000
vt 0.1667 0.6667 1.0000
vt 0.2500 0.6667 1.0000
vt 0.3333 0.6667 1.0000
vt 0.4167 0.6667 1.0000
vt 0.5000 0.6667 1.0000
vt 0.5833 0.6667 1.0000
vt 0.6667 0.6667 1.0000
vt 0.8333 1.0000 1.0000
vt 0.7500 1.0000 1.0000
vt 0.9167 1.0000 1.0000
vt 0.0000 1.0000 1.0000
vt -0.0833 1.0000 1.0000
vt 0.0833 1.0000 1.0000
vt 0.1667 1.0000 1.0000
vt 0.2500 1.0000 1.0000
vt 0.3333 1.0000 1.0000
vt 0.4167 1.0000 1.0000
vt 0.5000 1.0000 1.0000
vt 0.5833 1.0000 1.0000
vt 0.6667 1.0000 1.0000
vt 0.8884 1.0000 0.7321
vt 0.7560 1.0000 0.2679
vt 0.5550 1.0000 -0.2679
vt 0.3393 1.0000 -0.7321
vt 0.1667 1.0000 -1.0000
vt 0.0833 1.0000 -1.0000
vt 0.1116 1.0000 -0.7321
vt 0.2440 1.0000 -0.2679
# 69 texture coords

o Wheel
g Wheel
s 1
f 1/1/1 2/2/2 3/3/2 
f 3/3/2 4/4/3 5/5/2 
f 5/5/2 6/6/2 7/7/2 
f 3/3/2 5/5/2 7/7/2 
f 7/7/2 8/8/4 9/9/3 
f 9/9/3 10/10/2 11/11/1 
f 7/7/2 9/9/3 11/11/1 
f 3/3/2 7/7/2 11/11/1 
f 1/1/1 3/3/2 11/11/1 
f 12/12/2 1/1/1 11/11/1 
s 8
f 11/11/5 10/10/6 13/13/6 
f 13/13/6 14/14/7 11/11/5 
f 10/10/6 9/9/8 15/15/9 
f 15/15/9 13/13/6 10/10/6 
f 9/16/8 8/17/10 16/18/10 
f 16/18/10 15/19/9 9/16/8 
f 8/17/10 7/20/11 17/21/11 
f 17/21/11 16/18/10 8/17/10 
f 7/20/11 6/22/12 18/23/13 
f 18/23/13 17/21/11 7/20/11 
f 6/22/12 5/24/14 19/25/15 
f 19/25/15 18/23/13 6/22/12 
f 5/24/14 4/26/16 20/27/16 
f 20/27/16 19/25/15 5/24/14 
f 4/26/16 3/28/17 21/29/17 
f 21/29/17 20/27/16 4/26/16 
f 3/28/17 2/30/18 22/31/18 
f 22/31/18 21/29/17 3/28/17 
f 2/30/18 1/32/19 23/33/19 
f 23/33/19 22/31/18 2/30/18 
f 1/32/19 12/34/20 24/35/21 
f 24/35/21 23/33/19 1/32/19 
f 12/34/20 11/11/5 14/14/7 
f 14/14/7 24/35/21 12/34/20 
s 32
f 14/14/22 13/13/23 25/36/23 
f 25/36/23 26/37/22 14/14/22 
f 13/13/23 15/15/23 27/38/23 
f 27/38/23 25/36/23 13/13/23 
f 15/19/23 16/18/22 28/39/23 
f 28/39/23 27/40/23 15/19/23 
f 16/18/22 17/21/24 29/41/22 
f 29/41/22 28/39/23 16/18/22 
f 17/21/24 18/23/23 30/42/23 
f 30/42/23 29/41/22 17/21/24 
f 18/23/23 19/25/23 31/43/23 
f 31/43/23 30/42/23 18/23/23 
f 19/25/23 20/27/22 32/44/22 
f 32/44/22 31/43/23 19/25/23 
f 20/27/22 21/29/23 33/45/22 
f 33/45/22 32/44/22 20/27/22 
f 21/29/23 22/31/23 34/46/23 
f 34/46/23 33/45/22 21/29/23 
f 22/31/23 23/33/22 35/47/22 
f 35/47/22 34/46/23 22/31/23 
f 23/33/22 24/35/22 36/48/23 
f 36/48/23 35/47/22 23/33/22 
f 24/35/22 14/14/22 26/37/22 
f 26/37/22 36/48/23 24/35/22 
s 4
f 26/37/25 25/36/26 37/49/26 
f 37/49/26 38/50/27 26/37/25 
f 25/36/26 27/38/28 39/51/28 
f 39/51/28 37/49/26 25/36/26 
f 27/40/28 28/39/29 40/52/29 
f 40/52/29 39/53/28 27/40/28 
f 28/39/29 29/41/30 41/54/30 
f 41/54/30 40/52/29 28/39/29 
f 29/41/30 30/42/31 42/55/31 
f 42/55/31 41/54/30 29/41/30 
f 30/42/31 31/43/32 43/56/33 
f 43/56/33 42/55/31 30/42/31 
f 31/43/32 32/44/34 44/57/34 
f 44/57/34 43/56/33 31/43/32 
f 32/44/34 33/45/35 45/58/35 
f 45/58/35 44/57/34 32/44/34 
f 33/45/35 34/46/36 46/59/37 
f 46/59/37 45/58/35 33/45/35 
f 34/46/36 35/47/38 47/60/38 
f 47/60/38 46/59/37 34/46/36 
f 35/47/38 36/48/39 48/61/39 
f 48/61/39 47/60/38 35/47/38 
f 36/48/39 26/37/25 38/50/27 
f 38/50/27 48/61/39 36/48/39 
s 1
f 38/50/24 37/49/24 39/51/24 
f 39/51/24 40/62/24 41/63/24 
f 41/63/24 42/64/24 43/65/24 
f 39/51/24 41/63/24 43/65/24 
f 43/65/24 44/66/24 45/67/24 
f 45/67/24 46/68/24 47/69/24 
f 43/65/24 45/67/24 47/69/24 
f 39/51/24 43/65/24 47/69/24 
f 38/50/24 39/51/24 47/69/24 
f 48/61/24 38/50/24 47/69/24 
# 92 faces

