# 3ds Max Wavefront OBJ Exporter v0.97b - (c)2007 guruware
# File Created: 29.11.2018 18:44:21

mtllib basic_car.mtl

#
# object Car
#

v  -11.7735 0.0000 7.5000
v  -11.7735 0.0000 -7.5000
v  -9.3291 0.0000 -7.5000
v  -9.3291 0.0000 7.5000
v  3.1837 0.0000 -7.5000
v  3.1837 0.0000 7.5000
v  12.2436 0.0000 -7.5000
v  12.2436 0.0000 7.5000
v  22.0782 0.0000 -7.5000
v  22.0782 0.0000 7.5000
v  -11.7735 7.0000 7.5000
v  -9.2090 16.0000 7.5000
v  -9.2090 16.0000 -7.5000
v  -11.7735 7.0000 -7.5000
v  3.1837 16.0000 7.5000
v  3.1837 16.0000 -7.5000
v  12.2436 7.0000 7.5000
v  12.2436 7.0000 -7.5000
v  22.0782 7.0000 7.5000
v  22.0782 7.0000 -7.5000
v  -22.0782 0.0000 -7.5000
v  -22.0782 0.0000 7.5000
v  -22.0782 7.0000 7.5000
v  -22.0782 7.0000 -7.5000
# 24 vertices

vn 0.0000 -0.7071 0.7071
vn 0.0000 -0.7071 -0.7071
vn 0.5774 -0.5774 -0.5774
vn 0.5774 -0.5774 0.5774
vn -0.2965 0.3928 0.8705
vn -0.4850 0.6424 0.5934
vn -0.4850 0.6424 -0.5934
vn -0.2965 0.3928 -0.8705
vn 0.2958 0.7176 0.6305
vn 0.2958 0.7176 -0.6305
vn 0.2268 0.5501 0.8038
vn 0.2268 0.5501 -0.8038
vn 0.5774 0.5774 0.5774
vn 0.5774 0.5774 -0.5774
vn -0.5774 -0.5774 -0.5774
vn -0.5774 -0.5774 0.5774
vn -0.5774 0.5774 0.5774
vn -0.5774 0.5774 -0.5774
# 18 vertex normals

vt 0.2930 0.9335 0.0000
vt 0.2208 0.9335 0.0000
vt 0.2208 0.9218 0.0000
vt 0.2930 0.9218 0.0000
vt 0.2208 0.8615 0.0000
vt 0.2930 0.8615 0.0000
vt 0.2208 0.8179 0.0000
vt 0.2930 0.8179 0.0000
vt 0.2208 0.7705 0.0000
vt 0.2930 0.7705 0.0000
vt 0.9955 0.7654 0.0000
vt 0.9955 0.9990 0.0000
vt 0.6062 0.9990 0.0000
vt 0.6062 0.7654 0.0000
vt 0.9939 0.2040 0.0000
vt 0.9939 0.5068 0.0000
vt 0.6274 0.5068 0.0000
vt 0.6274 0.2040 0.0000
vt 0.6028 0.7324 0.0000
vt 0.6028 0.9934 0.0000
vt 0.3079 0.9934 0.0000
vt 0.3079 0.7324 0.0000
vt 0.9862 0.5309 0.0000
vt 0.9862 0.7534 0.0000
vt 0.6468 0.7534 0.0000
vt 0.6468 0.5309 0.0000
vt 0.0001 0.7670 0.0000
vt 0.0001 0.7118 0.0000
vt 0.3617 0.7091 0.0000
vt 0.1583 0.7670 0.0000
vt 0.0001 0.4290 0.0000
vt 0.3617 0.4290 0.0000
vt 0.0001 0.2242 0.0000
vt 0.1583 0.2242 0.0000
vt 0.0001 0.0019 0.0000
vt 0.1583 0.0019 0.0000
vt 0.6091 0.0089 0.0000
vt 0.9909 0.0089 0.0000
vt 0.9909 0.1871 0.0000
vt 0.6091 0.1871 0.0000
vt 0.5951 0.2685 0.0000
vt 0.5951 0.7168 0.0000
vt 0.3859 0.7168 0.0000
vt 0.3859 0.2685 0.0000
vt 0.2930 0.9832 0.0000
vt 0.2208 0.9832 0.0000
vt 0.1583 0.9999 0.0000
vt 0.0001 0.9999 0.0000
vt 0.2335 0.0059 0.0000
vt 0.6043 0.0059 0.0000
vt 0.6043 0.2606 0.0000
vt 0.2335 0.2606 0.0000
# 52 texture coords

o Car
g Car
usemtl 03___Default
s 1
f 1/1/1 2/2/2 3/3/2 4/4/1 
f 4/4/1 3/3/2 5/5/2 6/6/1 
f 6/6/1 5/5/2 7/7/2 8/8/1 
f 8/8/1 7/7/2 9/9/3 10/10/4 
s 2
f 11/11/5 12/12/6 13/13/7 14/14/8 
s 1
f 12/15/6 15/16/9 16/17/10 13/18/7 
s 4
f 15/19/9 17/20/11 18/21/12 16/22/10 
s 1
f 17/23/11 19/24/13 20/25/14 18/26/12 
f 1/27/1 4/28/1 12/29/6 11/30/5 
f 4/28/1 6/31/1 15/32/9 12/29/6 
f 6/31/1 8/33/1 17/34/11 15/32/9 
f 8/33/1 10/35/4 19/36/13 17/34/11 
f 10/37/4 9/38/3 20/39/14 19/40/13 
f 9/35/3 7/33/2 18/34/12 20/36/14 
f 7/33/2 5/31/2 16/32/10 18/34/12 
f 5/31/2 3/28/2 13/29/7 16/32/10 
f 3/28/2 2/27/2 14/30/8 13/29/7 
f 21/41/15 22/42/16 23/43/17 24/44/18 
f 2/2/2 1/1/1 22/45/16 21/46/15 
f 1/27/1 11/30/5 23/47/17 22/48/16 
f 11/49/5 14/50/8 24/51/18 23/52/17 
f 14/30/8 2/27/2 21/48/15 24/47/18 
# 22 polygons

